<mxfile host="app.diagrams.net" modified="2022-11-26T15:06:14.700Z" agent="5.0 (Windows NT 10.0; Win64; x64) AppleWebKit/537.36 (KHTML, like Gecko) Chrome/107.0.0.0 Safari/537.36" version="20.6.0" etag="COJhh6HpMr-Z6-FarNyr" type="github">
  <diagram id="jZ-GKtwr7s_IdxseyV0y" name="Страница 1">
    <mxGraphModel dx="1102" dy="614" grid="1" gridSize="10" guides="1" tooltips="1" connect="1" arrows="1" fold="1" page="1" pageScale="1" pageWidth="827" pageHeight="1169" math="0" shadow="0">
      <root>
        <mxCell id="0" />
        <mxCell id="1" parent="0" />
        <mxCell id="u1mua1dZROxh8dMIycfO-1" value="ResultArray" style="rounded=1;whiteSpace=wrap;html=1;" vertex="1" parent="1">
          <mxGeometry x="360" y="40" width="120" height="60" as="geometry" />
        </mxCell>
        <mxCell id="u1mua1dZROxh8dMIycfO-7" style="edgeStyle=orthogonalEdgeStyle;rounded=0;orthogonalLoop=1;jettySize=auto;html=1;entryX=0.5;entryY=0;entryDx=0;entryDy=0;fontColor=#000000;" edge="1" parent="1" source="u1mua1dZROxh8dMIycfO-3" target="u1mua1dZROxh8dMIycfO-6">
          <mxGeometry relative="1" as="geometry" />
        </mxCell>
        <mxCell id="u1mua1dZROxh8dMIycfO-3" value="string[] arrayOne&lt;br&gt;string[] arrayTwo&lt;br&gt;int count = 0" style="shape=parallelogram;perimeter=parallelogramPerimeter;whiteSpace=wrap;html=1;fixedSize=1;" vertex="1" parent="1">
          <mxGeometry x="354" y="150" width="120" height="60" as="geometry" />
        </mxCell>
        <mxCell id="u1mua1dZROxh8dMIycfO-5" value="" style="endArrow=classic;html=1;rounded=0;" edge="1" parent="1" target="u1mua1dZROxh8dMIycfO-3">
          <mxGeometry width="50" height="50" relative="1" as="geometry">
            <mxPoint x="414" y="100" as="sourcePoint" />
            <mxPoint x="464" y="50" as="targetPoint" />
          </mxGeometry>
        </mxCell>
        <mxCell id="u1mua1dZROxh8dMIycfO-9" value="" style="edgeStyle=orthogonalEdgeStyle;rounded=0;orthogonalLoop=1;jettySize=auto;html=1;fontColor=#000000;" edge="1" parent="1" source="u1mua1dZROxh8dMIycfO-6" target="u1mua1dZROxh8dMIycfO-8">
          <mxGeometry relative="1" as="geometry" />
        </mxCell>
        <mxCell id="u1mua1dZROxh8dMIycfO-6" value="&lt;div style=&quot;font-family: Consolas, &amp;quot;Courier New&amp;quot;, monospace; font-size: 14px; line-height: 19px;&quot;&gt;&lt;span style=&quot;background-color: rgb(255, 255, 255);&quot;&gt;for (int i = 0; i &amp;lt; arrayOne.Length; i++)&lt;/span&gt;&lt;/div&gt;" style="shape=hexagon;perimeter=hexagonPerimeter2;whiteSpace=wrap;html=1;fixedSize=1;" vertex="1" parent="1">
          <mxGeometry x="329" y="260" width="170" height="110" as="geometry" />
        </mxCell>
        <mxCell id="u1mua1dZROxh8dMIycfO-10" style="edgeStyle=orthogonalEdgeStyle;rounded=0;orthogonalLoop=1;jettySize=auto;html=1;entryX=0;entryY=0.5;entryDx=0;entryDy=0;fontColor=#000000;" edge="1" parent="1" source="u1mua1dZROxh8dMIycfO-8" target="u1mua1dZROxh8dMIycfO-6">
          <mxGeometry relative="1" as="geometry">
            <Array as="points">
              <mxPoint x="279" y="533" />
              <mxPoint x="279" y="315" />
            </Array>
          </mxGeometry>
        </mxCell>
        <mxCell id="u1mua1dZROxh8dMIycfO-14" value="" style="edgeStyle=orthogonalEdgeStyle;rounded=0;orthogonalLoop=1;jettySize=auto;html=1;fontColor=#000000;" edge="1" parent="1" source="u1mua1dZROxh8dMIycfO-8" target="u1mua1dZROxh8dMIycfO-13">
          <mxGeometry relative="1" as="geometry" />
        </mxCell>
        <mxCell id="u1mua1dZROxh8dMIycfO-8" value="&lt;div style=&quot;font-family: Consolas, &amp;quot;Courier New&amp;quot;, monospace; font-size: 14px; line-height: 19px;&quot;&gt;&lt;span style=&quot;background-color: rgb(255, 255, 255);&quot;&gt;arrayOne[i].Length &amp;lt;= 3&lt;/span&gt;&lt;/div&gt;" style="rhombus;whiteSpace=wrap;html=1;" vertex="1" parent="1">
          <mxGeometry x="299" y="470" width="230" height="125" as="geometry" />
        </mxCell>
        <mxCell id="u1mua1dZROxh8dMIycfO-11" value="No" style="text;html=1;strokeColor=none;fillColor=none;align=center;verticalAlign=middle;whiteSpace=wrap;rounded=0;labelBackgroundColor=#FFFFFF;fontColor=#000000;" vertex="1" parent="1">
          <mxGeometry x="250" y="540" width="60" height="30" as="geometry" />
        </mxCell>
        <mxCell id="u1mua1dZROxh8dMIycfO-15" style="edgeStyle=orthogonalEdgeStyle;rounded=0;orthogonalLoop=1;jettySize=auto;html=1;entryX=1;entryY=0.5;entryDx=0;entryDy=0;fontColor=#000000;" edge="1" parent="1" source="u1mua1dZROxh8dMIycfO-13" target="u1mua1dZROxh8dMIycfO-6">
          <mxGeometry relative="1" as="geometry">
            <Array as="points">
              <mxPoint x="770" y="315" />
            </Array>
          </mxGeometry>
        </mxCell>
        <mxCell id="u1mua1dZROxh8dMIycfO-13" value="&lt;div style=&quot;font-family: Consolas, &amp;quot;Courier New&amp;quot;, monospace; font-size: 14px; line-height: 19px;&quot;&gt;&lt;div style=&quot;&quot;&gt;&lt;span style=&quot;background-color: rgb(255, 255, 255);&quot;&gt;arrayTwo[count] = arrayOne[i];&lt;/span&gt;&lt;/div&gt;&lt;div style=&quot;&quot;&gt;&lt;span style=&quot;background-color: rgb(255, 255, 255);&quot;&gt;&amp;nbsp; &amp;nbsp; &amp;nbsp; &amp;nbsp; count++&lt;/span&gt;&lt;/div&gt;&lt;/div&gt;" style="whiteSpace=wrap;html=1;" vertex="1" parent="1">
          <mxGeometry x="664" y="502.5" width="246" height="60" as="geometry" />
        </mxCell>
        <mxCell id="u1mua1dZROxh8dMIycfO-16" value="Yes" style="text;html=1;strokeColor=none;fillColor=none;align=center;verticalAlign=middle;whiteSpace=wrap;rounded=0;labelBackgroundColor=#FFFFFF;fontColor=#000000;" vertex="1" parent="1">
          <mxGeometry x="529" y="540" width="60" height="30" as="geometry" />
        </mxCell>
      </root>
    </mxGraphModel>
  </diagram>
</mxfile>
